<svg xmlns="http://www.w3.org/2000/svg" viewBox="0 0 800 200" width="800" height="200">
  <rect width="800" height="200" rx="16" fill="#1A1528"/>
  <g transform="translate(341.2500, 40.3687) scale(1.175)">
    <polygon points="26,32 18,6 36,26" fill="#F5D76E"/>
    <polygon points="74,32 82,6 64,26" fill="#F5D76E"/>
    <ellipse cx="50" cy="38" rx="24" ry="24" fill="#F5D76E"/>
    <ellipse cx="50" cy="70" rx="21" ry="23" fill="#F5D76E"/>
    <ellipse cx="40" cy="92" rx="7" ry="3.5" fill="#F5D76E"/>
    <ellipse cx="60" cy="92" rx="7" ry="3.5" fill="#F5D76E"/>
    <ellipse cx="38" cy="35" rx="10" ry="10" fill="#1A1528"/>
    <ellipse cx="62" cy="35" rx="10" ry="10" fill="#1A1528"/>
    <polygon points="46,46 50,53 54,46" fill="#1A1528"/>
    <ellipse cx="38" cy="35" rx="4.5" ry="4.5" fill="#F5D76E"/>
    <ellipse cx="62" cy="35" rx="4.5" ry="4.5" fill="#F5D76E"/>
  </g>
  <text x="28" y="184" font-family="Futura, Avenir Next, Helvetica Neue, sans-serif" font-weight="bold" font-size="18" letter-spacing="4" fill="#F5D76E">EXE</text>
</svg>
